<?xml version="1.0" encoding="UTF-8" standalone="no"?>
<!DOCTYPE svg PUBLIC "-//W3C//DTD SVG 1.1//EN"
 "http://www.w3.org/Graphics/SVG/1.1/DTD/svg11.dtd">
<!-- Generated by graphviz version 12.2.1 (20241206.2353)
 -->
<!-- Title: G Pages: 1 -->
<svg width="1217pt" height="2960pt"
 viewBox="0.00 0.00 438.25 1065.50" xmlns="http://www.w3.org/2000/svg" xmlns:xlink="http://www.w3.org/1999/xlink">
<g id="graph0" class="graph" transform="scale(2.77778 2.77778) rotate(0) translate(4 1061.5)">
<title>G</title>
<polygon fill="white" stroke="none" points="-4,4 -4,-1061.5 434.25,-1061.5 434.25,4 -4,4"/>
<!-- 2906306422704 -->
<g id="node1" class="node">
<title>2906306422704</title>
<polygon fill="none" stroke="black" points="3.75,-972.5 3.75,-1057 426.5,-1057 426.5,-972.5 3.75,-972.5"/>
<polygon fill="black" stroke="none" points="3.75,-972.5 3.75,-1057 426.5,-1057 426.5,-972.5 3.75,-972.5"/>
<polygon fill="black" stroke="none" points="5.75,-1014.25 5.75,-1055 424.5,-1055 424.5,-1014.25 5.75,-1014.25"/>
<polygon fill="none" stroke="black" points="5.75,-1014.25 5.75,-1055 424.5,-1055 424.5,-1014.25 5.75,-1014.25"/>
<text text-anchor="start" x="136.75" y="-1029.8" font-family="Helvetica,sans-Serif" font-weight="bold" font-size="16.00" fill="white">rescaling</text>
<text text-anchor="start" x="207.25" y="-1029.8" font-family="Helvetica,sans-Serif" font-size="16.00" fill="white"> (Rescaling)</text>
<polygon fill="white" stroke="none" points="5.75,-974.5 5.75,-1012.25 208.5,-1012.25 208.5,-974.5 5.75,-974.5"/>
<polygon fill="none" stroke="black" points="5.75,-974.5 5.75,-1012.25 208.5,-1012.25 208.5,-974.5 5.75,-974.5"/>
<text text-anchor="start" x="16.75" y="-988.95" font-family="Helvetica,sans-Serif" font-size="14.00">Input shape: </text>
<text text-anchor="start" x="94.75" y="-988.95" font-family="Helvetica,sans-Serif" font-weight="bold" font-size="14.00">(None, 32, 32, 3)</text>
<polygon fill="white" stroke="none" points="210.5,-974.5 210.5,-1012.25 424.5,-1012.25 424.5,-974.5 210.5,-974.5"/>
<polygon fill="none" stroke="black" points="210.5,-974.5 210.5,-1012.25 424.5,-1012.25 424.5,-974.5 210.5,-974.5"/>
<text text-anchor="start" x="221.5" y="-988.95" font-family="Helvetica,sans-Serif" font-size="14.00">Output shape: </text>
<text text-anchor="start" x="310.75" y="-988.95" font-family="Helvetica,sans-Serif" font-weight="bold" font-size="14.00">(None, 32, 32, 3)</text>
</g>
<!-- 2906321582944 -->
<g id="node2" class="node">
<title>2906321582944</title>
<polygon fill="none" stroke="black" points="3.75,-851 3.75,-935.5 426.5,-935.5 426.5,-851 3.75,-851"/>
<polygon fill="black" stroke="none" points="3.75,-851 3.75,-935.5 426.5,-935.5 426.5,-851 3.75,-851"/>
<polygon fill="black" stroke="none" points="5.75,-892.75 5.75,-933.5 424.5,-933.5 424.5,-892.75 5.75,-892.75"/>
<polygon fill="none" stroke="black" points="5.75,-892.75 5.75,-933.5 424.5,-933.5 424.5,-892.75 5.75,-892.75"/>
<text text-anchor="start" x="150.62" y="-908.3" font-family="Helvetica,sans-Serif" font-weight="bold" font-size="16.00" fill="white">conv2d</text>
<text text-anchor="start" x="206.88" y="-908.3" font-family="Helvetica,sans-Serif" font-size="16.00" fill="white"> (Conv2D)</text>
<polygon fill="white" stroke="none" points="5.75,-853 5.75,-890.75 208.5,-890.75 208.5,-853 5.75,-853"/>
<polygon fill="none" stroke="black" points="5.75,-853 5.75,-890.75 208.5,-890.75 208.5,-853 5.75,-853"/>
<text text-anchor="start" x="16.75" y="-867.45" font-family="Helvetica,sans-Serif" font-size="14.00">Input shape: </text>
<text text-anchor="start" x="94.75" y="-867.45" font-family="Helvetica,sans-Serif" font-weight="bold" font-size="14.00">(None, 32, 32, 3)</text>
<polygon fill="white" stroke="none" points="210.5,-853 210.5,-890.75 424.5,-890.75 424.5,-853 210.5,-853"/>
<polygon fill="none" stroke="black" points="210.5,-853 210.5,-890.75 424.5,-890.75 424.5,-853 210.5,-853"/>
<text text-anchor="start" x="221.5" y="-867.45" font-family="Helvetica,sans-Serif" font-size="14.00">Output shape: </text>
<text text-anchor="start" x="310.75" y="-867.45" font-family="Helvetica,sans-Serif" font-weight="bold" font-size="14.00">(None, 32, 32, 8)</text>
</g>
<!-- 2906306422704&#45;&gt;2906321582944 -->
<g id="edge1" class="edge">
<title>2906306422704&#45;&gt;2906321582944</title>
<path fill="none" stroke="black" stroke-width="2" d="M215.12,-972.26C215.12,-972.26 215.12,-948.95 215.12,-948.95"/>
<polygon fill="black" stroke="black" stroke-width="2" points="218.63,-948.95 215.13,-938.95 211.63,-948.95 218.63,-948.95"/>
</g>
<!-- 2906347784240 -->
<g id="node3" class="node">
<title>2906347784240</title>
<polygon fill="none" stroke="black" points="3.75,-729.5 3.75,-814 426.5,-814 426.5,-729.5 3.75,-729.5"/>
<polygon fill="black" stroke="none" points="3.75,-729.5 3.75,-814 426.5,-814 426.5,-729.5 3.75,-729.5"/>
<polygon fill="black" stroke="none" points="5.75,-771.25 5.75,-812 424.5,-812 424.5,-771.25 5.75,-771.25"/>
<polygon fill="none" stroke="black" points="5.75,-771.25 5.75,-812 424.5,-812 424.5,-771.25 5.75,-771.25"/>
<text text-anchor="start" x="96.25" y="-786.8" font-family="Helvetica,sans-Serif" font-weight="bold" font-size="16.00" fill="white">max_pooling2d</text>
<text text-anchor="start" x="214" y="-786.8" font-family="Helvetica,sans-Serif" font-size="16.00" fill="white"> (MaxPooling2D)</text>
<polygon fill="white" stroke="none" points="5.75,-731.5 5.75,-769.25 208.5,-769.25 208.5,-731.5 5.75,-731.5"/>
<polygon fill="none" stroke="black" points="5.75,-731.5 5.75,-769.25 208.5,-769.25 208.5,-731.5 5.75,-731.5"/>
<text text-anchor="start" x="16.75" y="-745.95" font-family="Helvetica,sans-Serif" font-size="14.00">Input shape: </text>
<text text-anchor="start" x="94.75" y="-745.95" font-family="Helvetica,sans-Serif" font-weight="bold" font-size="14.00">(None, 32, 32, 8)</text>
<polygon fill="white" stroke="none" points="210.5,-731.5 210.5,-769.25 424.5,-769.25 424.5,-731.5 210.5,-731.5"/>
<polygon fill="none" stroke="black" points="210.5,-731.5 210.5,-769.25 424.5,-769.25 424.5,-731.5 210.5,-731.5"/>
<text text-anchor="start" x="221.5" y="-745.95" font-family="Helvetica,sans-Serif" font-size="14.00">Output shape: </text>
<text text-anchor="start" x="310.75" y="-745.95" font-family="Helvetica,sans-Serif" font-weight="bold" font-size="14.00">(None, 16, 16, 8)</text>
</g>
<!-- 2906321582944&#45;&gt;2906347784240 -->
<g id="edge2" class="edge">
<title>2906321582944&#45;&gt;2906347784240</title>
<path fill="none" stroke="black" stroke-width="2" d="M215.12,-850.76C215.12,-850.76 215.12,-827.45 215.12,-827.45"/>
<polygon fill="black" stroke="black" stroke-width="2" points="218.63,-827.45 215.13,-817.45 211.63,-827.45 218.63,-827.45"/>
</g>
<!-- 2906346442576 -->
<g id="node4" class="node">
<title>2906346442576</title>
<polygon fill="none" stroke="black" points="0,-608 0,-692.5 430.25,-692.5 430.25,-608 0,-608"/>
<polygon fill="black" stroke="none" points="0,-608 0,-692.5 430.25,-692.5 430.25,-608 0,-608"/>
<polygon fill="black" stroke="none" points="2,-649.75 2,-690.5 428.25,-690.5 428.25,-649.75 2,-649.75"/>
<polygon fill="none" stroke="black" points="2,-649.75 2,-690.5 428.25,-690.5 428.25,-649.75 2,-649.75"/>
<text text-anchor="start" x="141.62" y="-665.3" font-family="Helvetica,sans-Serif" font-weight="bold" font-size="16.00" fill="white">conv2d_1</text>
<text text-anchor="start" x="215.88" y="-665.3" font-family="Helvetica,sans-Serif" font-size="16.00" fill="white"> (Conv2D)</text>
<polygon fill="white" stroke="none" points="2,-610 2,-647.75 204.75,-647.75 204.75,-610 2,-610"/>
<polygon fill="none" stroke="black" points="2,-610 2,-647.75 204.75,-647.75 204.75,-610 2,-610"/>
<text text-anchor="start" x="13" y="-624.45" font-family="Helvetica,sans-Serif" font-size="14.00">Input shape: </text>
<text text-anchor="start" x="91" y="-624.45" font-family="Helvetica,sans-Serif" font-weight="bold" font-size="14.00">(None, 16, 16, 8)</text>
<polygon fill="white" stroke="none" points="206.75,-610 206.75,-647.75 428.25,-647.75 428.25,-610 206.75,-610"/>
<polygon fill="none" stroke="black" points="206.75,-610 206.75,-647.75 428.25,-647.75 428.25,-610 206.75,-610"/>
<text text-anchor="start" x="217.75" y="-624.45" font-family="Helvetica,sans-Serif" font-size="14.00">Output shape: </text>
<text text-anchor="start" x="307" y="-624.45" font-family="Helvetica,sans-Serif" font-weight="bold" font-size="14.00">(None, 16, 16, 16)</text>
</g>
<!-- 2906347784240&#45;&gt;2906346442576 -->
<g id="edge3" class="edge">
<title>2906347784240&#45;&gt;2906346442576</title>
<path fill="none" stroke="black" stroke-width="2" d="M215.12,-729.26C215.12,-729.26 215.12,-705.95 215.12,-705.95"/>
<polygon fill="black" stroke="black" stroke-width="2" points="218.63,-705.95 215.13,-695.95 211.63,-705.95 218.63,-705.95"/>
</g>
<!-- 2906348027984 -->
<g id="node5" class="node">
<title>2906348027984</title>
<polygon fill="none" stroke="black" points="3.75,-486.5 3.75,-571 426.5,-571 426.5,-486.5 3.75,-486.5"/>
<polygon fill="black" stroke="none" points="3.75,-486.5 3.75,-571 426.5,-571 426.5,-486.5 3.75,-486.5"/>
<polygon fill="black" stroke="none" points="5.75,-528.25 5.75,-569 424.5,-569 424.5,-528.25 5.75,-528.25"/>
<polygon fill="none" stroke="black" points="5.75,-528.25 5.75,-569 424.5,-569 424.5,-528.25 5.75,-528.25"/>
<text text-anchor="start" x="87.25" y="-543.8" font-family="Helvetica,sans-Serif" font-weight="bold" font-size="16.00" fill="white">max_pooling2d_1</text>
<text text-anchor="start" x="223" y="-543.8" font-family="Helvetica,sans-Serif" font-size="16.00" fill="white"> (MaxPooling2D)</text>
<polygon fill="white" stroke="none" points="5.75,-488.5 5.75,-526.25 216,-526.25 216,-488.5 5.75,-488.5"/>
<polygon fill="none" stroke="black" points="5.75,-488.5 5.75,-526.25 216,-526.25 216,-488.5 5.75,-488.5"/>
<text text-anchor="start" x="16.75" y="-502.95" font-family="Helvetica,sans-Serif" font-size="14.00">Input shape: </text>
<text text-anchor="start" x="94.75" y="-502.95" font-family="Helvetica,sans-Serif" font-weight="bold" font-size="14.00">(None, 16, 16, 16)</text>
<polygon fill="white" stroke="none" points="218,-488.5 218,-526.25 424.5,-526.25 424.5,-488.5 218,-488.5"/>
<polygon fill="none" stroke="black" points="218,-488.5 218,-526.25 424.5,-526.25 424.5,-488.5 218,-488.5"/>
<text text-anchor="start" x="229" y="-502.95" font-family="Helvetica,sans-Serif" font-size="14.00">Output shape: </text>
<text text-anchor="start" x="318.25" y="-502.95" font-family="Helvetica,sans-Serif" font-weight="bold" font-size="14.00">(None, 8, 8, 16)</text>
</g>
<!-- 2906346442576&#45;&gt;2906348027984 -->
<g id="edge4" class="edge">
<title>2906346442576&#45;&gt;2906348027984</title>
<path fill="none" stroke="black" stroke-width="2" d="M215.12,-607.76C215.12,-607.76 215.12,-584.45 215.12,-584.45"/>
<polygon fill="black" stroke="black" stroke-width="2" points="218.63,-584.45 215.13,-574.45 211.63,-584.45 218.63,-584.45"/>
</g>
<!-- 2906348028304 -->
<g id="node6" class="node">
<title>2906348028304</title>
<polygon fill="none" stroke="black" points="11.25,-365 11.25,-449.5 419,-449.5 419,-365 11.25,-365"/>
<polygon fill="black" stroke="none" points="11.25,-365 11.25,-449.5 419,-449.5 419,-365 11.25,-365"/>
<polygon fill="black" stroke="none" points="13.25,-406.75 13.25,-447.5 417,-447.5 417,-406.75 13.25,-406.75"/>
<polygon fill="none" stroke="black" points="13.25,-406.75 13.25,-447.5 417,-447.5 417,-406.75 13.25,-406.75"/>
<text text-anchor="start" x="141.62" y="-422.3" font-family="Helvetica,sans-Serif" font-weight="bold" font-size="16.00" fill="white">conv2d_2</text>
<text text-anchor="start" x="215.88" y="-422.3" font-family="Helvetica,sans-Serif" font-size="16.00" fill="white"> (Conv2D)</text>
<polygon fill="white" stroke="none" points="13.25,-367 13.25,-404.75 208.5,-404.75 208.5,-367 13.25,-367"/>
<polygon fill="none" stroke="black" points="13.25,-367 13.25,-404.75 208.5,-404.75 208.5,-367 13.25,-367"/>
<text text-anchor="start" x="24.25" y="-381.45" font-family="Helvetica,sans-Serif" font-size="14.00">Input shape: </text>
<text text-anchor="start" x="102.25" y="-381.45" font-family="Helvetica,sans-Serif" font-weight="bold" font-size="14.00">(None, 8, 8, 16)</text>
<polygon fill="white" stroke="none" points="210.5,-367 210.5,-404.75 417,-404.75 417,-367 210.5,-367"/>
<polygon fill="none" stroke="black" points="210.5,-367 210.5,-404.75 417,-404.75 417,-367 210.5,-367"/>
<text text-anchor="start" x="221.5" y="-381.45" font-family="Helvetica,sans-Serif" font-size="14.00">Output shape: </text>
<text text-anchor="start" x="310.75" y="-381.45" font-family="Helvetica,sans-Serif" font-weight="bold" font-size="14.00">(None, 8, 8, 32)</text>
</g>
<!-- 2906348027984&#45;&gt;2906348028304 -->
<g id="edge5" class="edge">
<title>2906348027984&#45;&gt;2906348028304</title>
<path fill="none" stroke="black" stroke-width="2" d="M215.12,-486.26C215.12,-486.26 215.12,-462.95 215.12,-462.95"/>
<polygon fill="black" stroke="black" stroke-width="2" points="218.63,-462.95 215.13,-452.95 211.63,-462.95 218.63,-462.95"/>
</g>
<!-- 2906347784576 -->
<g id="node7" class="node">
<title>2906347784576</title>
<polygon fill="none" stroke="black" points="2.62,-243.5 2.62,-328 427.62,-328 427.62,-243.5 2.62,-243.5"/>
<polygon fill="black" stroke="none" points="2.62,-243.5 2.62,-328 427.62,-328 427.62,-243.5 2.62,-243.5"/>
<polygon fill="black" stroke="none" points="4.62,-285.25 4.62,-326 425.62,-326 425.62,-285.25 4.62,-285.25"/>
<polygon fill="none" stroke="black" points="4.62,-285.25 4.62,-326 425.62,-326 425.62,-285.25 4.62,-285.25"/>
<text text-anchor="start" x="15.62" y="-300.8" font-family="Helvetica,sans-Serif" font-weight="bold" font-size="16.00" fill="white">global_average_pooling2d</text>
<text text-anchor="start" x="218.12" y="-300.8" font-family="Helvetica,sans-Serif" font-size="16.00" fill="white"> (GlobalAveragePooling2D)</text>
<polygon fill="white" stroke="none" points="4.62,-245.5 4.62,-283.25 223.5,-283.25 223.5,-245.5 4.62,-245.5"/>
<polygon fill="none" stroke="black" points="4.62,-245.5 4.62,-283.25 223.5,-283.25 223.5,-245.5 4.62,-245.5"/>
<text text-anchor="start" x="27.44" y="-259.95" font-family="Helvetica,sans-Serif" font-size="14.00">Input shape: </text>
<text text-anchor="start" x="105.44" y="-259.95" font-family="Helvetica,sans-Serif" font-weight="bold" font-size="14.00">(None, 8, 8, 32)</text>
<polygon fill="white" stroke="none" points="225.5,-245.5 225.5,-283.25 425.62,-283.25 425.62,-245.5 225.5,-245.5"/>
<polygon fill="none" stroke="black" points="225.5,-245.5 225.5,-283.25 425.62,-283.25 425.62,-245.5 225.5,-245.5"/>
<text text-anchor="start" x="248.31" y="-259.95" font-family="Helvetica,sans-Serif" font-size="14.00">Output shape: </text>
<text text-anchor="start" x="337.56" y="-259.95" font-family="Helvetica,sans-Serif" font-weight="bold" font-size="14.00">(None, 32)</text>
</g>
<!-- 2906348028304&#45;&gt;2906347784576 -->
<g id="edge6" class="edge">
<title>2906348028304&#45;&gt;2906347784576</title>
<path fill="none" stroke="black" stroke-width="2" d="M215.12,-364.76C215.12,-364.76 215.12,-341.45 215.12,-341.45"/>
<polygon fill="black" stroke="black" stroke-width="2" points="218.63,-341.45 215.13,-331.45 211.63,-341.45 218.63,-341.45"/>
</g>
<!-- 2906347784912 -->
<g id="node8" class="node">
<title>2906347784912</title>
<polygon fill="none" stroke="black" points="45,-122 45,-206.5 385.25,-206.5 385.25,-122 45,-122"/>
<polygon fill="black" stroke="none" points="45,-122 45,-206.5 385.25,-206.5 385.25,-122 45,-122"/>
<polygon fill="black" stroke="none" points="47,-163.75 47,-204.5 383.25,-204.5 383.25,-163.75 47,-163.75"/>
<polygon fill="none" stroke="black" points="47,-163.75 47,-204.5 383.25,-204.5 383.25,-163.75 47,-163.75"/>
<text text-anchor="start" x="161.12" y="-179.3" font-family="Helvetica,sans-Serif" font-weight="bold" font-size="16.00" fill="white">dense</text>
<text text-anchor="start" x="207.62" y="-179.3" font-family="Helvetica,sans-Serif" font-size="16.00" fill="white"> (Dense)</text>
<polygon fill="white" stroke="none" points="47,-124 47,-161.75 212.25,-161.75 212.25,-124 47,-124"/>
<polygon fill="none" stroke="black" points="47,-124 47,-161.75 212.25,-161.75 212.25,-124 47,-124"/>
<text text-anchor="start" x="58" y="-138.45" font-family="Helvetica,sans-Serif" font-size="14.00">Input shape: </text>
<text text-anchor="start" x="136" y="-138.45" font-family="Helvetica,sans-Serif" font-weight="bold" font-size="14.00">(None, 32)</text>
<polygon fill="white" stroke="none" points="214.25,-124 214.25,-161.75 383.25,-161.75 383.25,-124 214.25,-124"/>
<polygon fill="none" stroke="black" points="214.25,-124 214.25,-161.75 383.25,-161.75 383.25,-124 214.25,-124"/>
<text text-anchor="start" x="225.25" y="-138.45" font-family="Helvetica,sans-Serif" font-size="14.00">Output shape: </text>
<text text-anchor="start" x="314.5" y="-138.45" font-family="Helvetica,sans-Serif" font-weight="bold" font-size="14.00">(None, 8)</text>
</g>
<!-- 2906347784576&#45;&gt;2906347784912 -->
<g id="edge7" class="edge">
<title>2906347784576&#45;&gt;2906347784912</title>
<path fill="none" stroke="black" stroke-width="2" d="M215.12,-243.26C215.12,-243.26 215.12,-219.95 215.12,-219.95"/>
<polygon fill="black" stroke="black" stroke-width="2" points="218.63,-219.95 215.13,-209.95 211.63,-219.95 218.63,-219.95"/>
</g>
<!-- 2906348029264 -->
<g id="node9" class="node">
<title>2906348029264</title>
<polygon fill="none" stroke="black" points="48.75,-0.5 48.75,-85 381.5,-85 381.5,-0.5 48.75,-0.5"/>
<polygon fill="black" stroke="none" points="48.75,-0.5 48.75,-85 381.5,-85 381.5,-0.5 48.75,-0.5"/>
<polygon fill="black" stroke="none" points="50.75,-42.25 50.75,-83 379.5,-83 379.5,-42.25 50.75,-42.25"/>
<polygon fill="none" stroke="black" points="50.75,-42.25 50.75,-83 379.5,-83 379.5,-42.25 50.75,-42.25"/>
<text text-anchor="start" x="152.12" y="-57.8" font-family="Helvetica,sans-Serif" font-weight="bold" font-size="16.00" fill="white">dense_1</text>
<text text-anchor="start" x="216.62" y="-57.8" font-family="Helvetica,sans-Serif" font-size="16.00" fill="white"> (Dense)</text>
<polygon fill="white" stroke="none" points="50.75,-2.5 50.75,-40.25 208.5,-40.25 208.5,-2.5 50.75,-2.5"/>
<polygon fill="none" stroke="black" points="50.75,-2.5 50.75,-40.25 208.5,-40.25 208.5,-2.5 50.75,-2.5"/>
<text text-anchor="start" x="61.75" y="-16.95" font-family="Helvetica,sans-Serif" font-size="14.00">Input shape: </text>
<text text-anchor="start" x="139.75" y="-16.95" font-family="Helvetica,sans-Serif" font-weight="bold" font-size="14.00">(None, 8)</text>
<polygon fill="white" stroke="none" points="210.5,-2.5 210.5,-40.25 379.5,-40.25 379.5,-2.5 210.5,-2.5"/>
<polygon fill="none" stroke="black" points="210.5,-2.5 210.5,-40.25 379.5,-40.25 379.5,-2.5 210.5,-2.5"/>
<text text-anchor="start" x="221.5" y="-16.95" font-family="Helvetica,sans-Serif" font-size="14.00">Output shape: </text>
<text text-anchor="start" x="310.75" y="-16.95" font-family="Helvetica,sans-Serif" font-weight="bold" font-size="14.00">(None, 1)</text>
</g>
<!-- 2906347784912&#45;&gt;2906348029264 -->
<g id="edge8" class="edge">
<title>2906347784912&#45;&gt;2906348029264</title>
<path fill="none" stroke="black" stroke-width="2" d="M215.12,-121.76C215.12,-121.76 215.12,-98.45 215.12,-98.45"/>
<polygon fill="black" stroke="black" stroke-width="2" points="218.63,-98.45 215.13,-88.45 211.63,-98.45 218.63,-98.45"/>
</g>
</g>
</svg>
